<mxfile host="app.diagrams.net" agent="Mozilla/5.0 (Windows NT 10.0; Win64; x64) AppleWebKit/537.36 (KHTML, like Gecko) Chrome/138.0.0.0 Safari/537.36" version="28.0.7">
  <diagram name="Page-1" id="MRD4XKfjKdsfjoWTD3oA">
    <mxGraphModel dx="1042" dy="527" grid="1" gridSize="10" guides="1" tooltips="1" connect="1" arrows="1" fold="1" page="1" pageScale="1" pageWidth="850" pageHeight="1100" math="0" shadow="0">
      <root>
        <mxCell id="0" />
        <mxCell id="1" parent="0" />
        <mxCell id="RO_XYMxbUc0r_-2-91oQ-18" value="" style="edgeStyle=orthogonalEdgeStyle;rounded=0;orthogonalLoop=1;jettySize=auto;html=1;" parent="1" source="RO_XYMxbUc0r_-2-91oQ-1" target="RO_XYMxbUc0r_-2-91oQ-17" edge="1">
          <mxGeometry relative="1" as="geometry" />
        </mxCell>
        <mxCell id="RO_XYMxbUc0r_-2-91oQ-1" value="Plan" style="ellipse;whiteSpace=wrap;html=1;aspect=fixed;direction=south;" parent="1" vertex="1">
          <mxGeometry x="385" y="70" width="80" height="80" as="geometry" />
        </mxCell>
        <mxCell id="RO_XYMxbUc0r_-2-91oQ-6" value="Develop" style="ellipse;whiteSpace=wrap;html=1;aspect=fixed;" parent="1" vertex="1">
          <mxGeometry x="385" y="200" width="80" height="80" as="geometry" />
        </mxCell>
        <mxCell id="lnJ5l9ypMf1ykBEfELjZ-2" value="" style="edgeStyle=orthogonalEdgeStyle;rounded=0;orthogonalLoop=1;jettySize=auto;html=1;" edge="1" parent="1" source="RO_XYMxbUc0r_-2-91oQ-17" target="lnJ5l9ypMf1ykBEfELjZ-1">
          <mxGeometry relative="1" as="geometry" />
        </mxCell>
        <mxCell id="RO_XYMxbUc0r_-2-91oQ-17" value="Develop" style="ellipse;whiteSpace=wrap;html=1;" parent="1" vertex="1">
          <mxGeometry x="385" y="200" width="80" height="80" as="geometry" />
        </mxCell>
        <mxCell id="lnJ5l9ypMf1ykBEfELjZ-4" value="" style="edgeStyle=orthogonalEdgeStyle;rounded=0;orthogonalLoop=1;jettySize=auto;html=1;" edge="1" parent="1" source="lnJ5l9ypMf1ykBEfELjZ-1" target="lnJ5l9ypMf1ykBEfELjZ-3">
          <mxGeometry relative="1" as="geometry" />
        </mxCell>
        <mxCell id="lnJ5l9ypMf1ykBEfELjZ-1" value="&amp;nbsp;Build" style="ellipse;whiteSpace=wrap;html=1;" vertex="1" parent="1">
          <mxGeometry x="385" y="330" width="80" height="80" as="geometry" />
        </mxCell>
        <mxCell id="lnJ5l9ypMf1ykBEfELjZ-6" value="" style="edgeStyle=orthogonalEdgeStyle;rounded=0;orthogonalLoop=1;jettySize=auto;html=1;" edge="1" parent="1" source="lnJ5l9ypMf1ykBEfELjZ-3" target="lnJ5l9ypMf1ykBEfELjZ-5">
          <mxGeometry relative="1" as="geometry" />
        </mxCell>
        <mxCell id="lnJ5l9ypMf1ykBEfELjZ-3" value="Test" style="ellipse;whiteSpace=wrap;html=1;" vertex="1" parent="1">
          <mxGeometry x="385" y="460" width="80" height="80" as="geometry" />
        </mxCell>
        <mxCell id="lnJ5l9ypMf1ykBEfELjZ-8" value="" style="edgeStyle=orthogonalEdgeStyle;rounded=0;orthogonalLoop=1;jettySize=auto;html=1;" edge="1" parent="1" source="lnJ5l9ypMf1ykBEfELjZ-5" target="lnJ5l9ypMf1ykBEfELjZ-7">
          <mxGeometry relative="1" as="geometry" />
        </mxCell>
        <mxCell id="lnJ5l9ypMf1ykBEfELjZ-5" value="Release" style="ellipse;whiteSpace=wrap;html=1;" vertex="1" parent="1">
          <mxGeometry x="385" y="590" width="80" height="80" as="geometry" />
        </mxCell>
        <mxCell id="lnJ5l9ypMf1ykBEfELjZ-10" value="" style="edgeStyle=orthogonalEdgeStyle;rounded=0;orthogonalLoop=1;jettySize=auto;html=1;" edge="1" parent="1" source="lnJ5l9ypMf1ykBEfELjZ-7" target="lnJ5l9ypMf1ykBEfELjZ-9">
          <mxGeometry relative="1" as="geometry" />
        </mxCell>
        <mxCell id="lnJ5l9ypMf1ykBEfELjZ-7" value="Depoly" style="ellipse;whiteSpace=wrap;html=1;" vertex="1" parent="1">
          <mxGeometry x="385" y="720" width="80" height="80" as="geometry" />
        </mxCell>
        <mxCell id="lnJ5l9ypMf1ykBEfELjZ-12" value="" style="edgeStyle=orthogonalEdgeStyle;rounded=0;orthogonalLoop=1;jettySize=auto;html=1;" edge="1" parent="1" source="lnJ5l9ypMf1ykBEfELjZ-9" target="lnJ5l9ypMf1ykBEfELjZ-11">
          <mxGeometry relative="1" as="geometry" />
        </mxCell>
        <mxCell id="lnJ5l9ypMf1ykBEfELjZ-9" value="Operate" style="ellipse;whiteSpace=wrap;html=1;" vertex="1" parent="1">
          <mxGeometry x="385" y="850" width="80" height="80" as="geometry" />
        </mxCell>
        <mxCell id="lnJ5l9ypMf1ykBEfELjZ-11" value="&lt;div&gt;&lt;br&gt;&lt;/div&gt;&lt;div&gt;Moniter&lt;/div&gt;" style="ellipse;whiteSpace=wrap;html=1;" vertex="1" parent="1">
          <mxGeometry x="385" y="980" width="80" height="80" as="geometry" />
        </mxCell>
      </root>
    </mxGraphModel>
  </diagram>
</mxfile>
